<svg width="32" height="32" viewBox="0 0 32 32" fill="none" xmlns="http://www.w3.org/2000/svg">
<path fill-rule="evenodd" clip-rule="evenodd" d="M5 0C2.23858 0 0 2.23857 0 5V27C0 29.7614 2.23858 32 5 32H27C29.7614 32 32 29.7614 32 27V5C32 2.23857 29.7614 0 27 0H5ZM8.66663 11C8.66663 10.6319 8.96511 10.3334 9.3333 10.3334H22.6666C23.0348 10.3334 23.3333 10.6319 23.3333 11V11.284L16.3274 15.736L16.3253 15.7373C16.2276 15.7979 16.115 15.83 16 15.83C15.885 15.83 15.7723 15.7979 15.6746 15.7373L8.66663 11.284V11ZM25.3333 11V11.8165C25.3335 11.8271 25.3335 11.8377 25.3333 11.8483V21C25.3333 22.4728 24.1394 23.6667 22.6666 23.6667H9.3333C7.86054 23.6667 6.66663 22.4728 6.66663 21V11.8484C6.66646 11.8378 6.66646 11.8271 6.66663 11.8165V11C6.66663 9.52728 7.86054 8.33337 9.3333 8.33337H22.6666C24.1394 8.33337 25.3333 9.52728 25.3333 11ZM17.3892 17.4308L23.3333 13.6536V21C23.3333 21.3682 23.0348 21.6667 22.6666 21.6667H9.3333C8.96511 21.6667 8.66663 21.3682 8.66663 21V13.6536L14.6053 17.4274L14.6107 17.4308C15.0271 17.6917 15.5086 17.83 16 17.83C16.4914 17.83 16.9728 17.6917 17.3892 17.4308Z" fill="white"/>
</svg>
