<svg width="119" height="36" viewBox="0 0 119 36" fill="none" xmlns="http://www.w3.org/2000/svg">
<g clip-path="url(#clip0_51847_6082)">
<path d="M101.049 7.08505C100.649 6.98722 100.24 6.93719 99.8291 6.93604C93.406 6.93604 92.078 9.36097 91.8002 10.4583V10.5599V8.74458L86.3799 6.93604V25.8207H91.8002V13.4522C91.8002 13.4522 91.8002 13.398 91.8002 13.3777C91.9598 12.4337 92.4477 11.5763 93.1778 10.9567C93.9078 10.3371 94.8333 9.99507 95.7909 9.99091C95.9862 9.99521 96.1809 10.0133 96.3736 10.0451C96.5128 10.0673 96.6508 10.0967 96.7869 10.1332L97.0918 10.2144C97.2138 10.2551 97.3357 10.3093 97.4577 10.3635L97.7558 10.5057L98.0539 10.7021C98.1556 10.7699 98.2572 10.8376 98.3521 10.9121L98.5824 11.1221C98.9212 8.80554 100.005 7.56598 101.049 7.08505Z" fill="white"/>
<path d="M118.773 6.93604H113.353V10.8376C113.336 10.7146 113.314 10.5925 113.285 10.4718C113.041 9.50999 111.252 7.00377 106.604 7.00377C105.06 7.00916 103.563 7.54198 102.363 8.51396C101.163 9.48594 100.331 10.8387 100.005 12.3481C99.9161 12.7829 99.8685 13.2252 99.8628 13.669V19.1894C99.8663 19.6445 99.914 20.0982 100.005 20.5441C100.331 22.0535 101.163 23.4063 102.363 24.3783C103.563 25.3502 105.06 25.8831 106.604 25.8885C111.225 25.8885 113.041 23.3822 113.285 22.4136C113.314 22.293 113.336 22.1709 113.353 22.0479V22.2578V25.8546C113.353 26.9325 112.924 27.9662 112.162 28.7284C111.4 29.4905 110.366 29.9187 109.287 29.9187L116.212 32.2285C116.981 31.7415 117.615 31.0685 118.056 30.2718C118.496 29.4751 118.729 28.5802 118.732 27.6699V6.93604H118.773ZM113.353 19.3723C113.353 19.5078 113.353 19.6839 113.312 19.8194C113.152 20.7634 112.665 21.6207 111.934 22.2403C111.204 22.8599 110.279 23.202 109.321 23.2061C109.126 23.2018 108.931 23.1837 108.739 23.1519C108.6 23.132 108.462 23.1049 108.325 23.0707L108.02 22.9826C107.898 22.942 107.776 22.8878 107.655 22.8336C107.533 22.7794 107.451 22.7455 107.356 22.6913L107.058 22.4949C106.957 22.4272 106.855 22.3594 106.76 22.2849C106.665 22.2104 106.611 22.1427 106.537 22.0749C106.434 21.983 106.337 21.8858 106.245 21.7837L106.096 21.5805C106 21.4601 105.911 21.3333 105.832 21.2012C105.798 21.1402 105.771 21.0792 105.744 21.025C105.658 20.87 105.584 20.7093 105.52 20.5441C105.52 20.5035 105.52 20.4561 105.48 20.4086C105.416 20.223 105.366 20.0328 105.331 19.8397C105.293 19.6158 105.272 19.3893 105.27 19.1623V13.696C105.272 13.469 105.293 13.2426 105.331 13.0187C105.366 12.8255 105.416 12.6353 105.48 12.4497C105.48 12.4023 105.48 12.3549 105.52 12.3142C105.584 12.149 105.658 11.9884 105.744 11.8333C105.744 11.7791 105.798 11.7182 105.832 11.6572C105.911 11.525 106 11.3983 106.096 11.2779L106.245 11.0747C106.337 10.9726 106.434 10.8754 106.537 10.7834C106.611 10.7089 106.679 10.6412 106.76 10.5734C106.841 10.5057 106.957 10.4312 107.058 10.3635L107.356 10.167C107.451 10.1128 107.553 10.0722 107.655 10.0248C107.756 9.97736 107.898 9.9164 108.02 9.87576L108.325 9.7877C108.462 9.75349 108.6 9.72636 108.739 9.70642C108.931 9.67128 109.126 9.65315 109.321 9.65223C110.279 9.6564 111.204 9.99842 111.934 10.618C112.665 11.2376 113.152 12.095 113.312 13.039C113.312 13.1745 113.346 13.3506 113.353 13.4861V19.3181C113.349 19.3269 113.348 19.3366 113.349 19.3461C113.35 19.3556 113.354 19.3647 113.359 19.3723H113.353Z" fill="white"/>
<path d="M62.083 13.669C62.0773 13.2252 62.0296 12.783 61.9407 12.3481C61.6146 10.8376 60.7816 9.48397 59.58 8.51187C58.3784 7.53977 56.8804 7.00764 55.3347 7.0038C50.7206 7.0038 48.9048 9.51002 48.6609 10.4719C48.6609 10.4719 48.6609 10.6006 48.5864 10.8376V3.3393L43.166 1.53076V25.8208H48.5864V22.0208C48.627 22.2579 48.6609 22.3866 48.6609 22.3866C48.9048 23.3552 50.6935 25.8614 55.3347 25.8614C56.8804 25.8576 58.3784 25.3254 59.58 24.3533C60.7816 23.3812 61.6146 22.0276 61.9407 20.5171C62.0318 20.0711 62.0794 19.6175 62.083 19.1623V13.669ZM56.4729 20.4425C56.4635 20.4888 56.4499 20.5342 56.4323 20.578C56.3775 20.7228 56.3118 20.8631 56.2358 20.998L56.1477 21.1741C56.0682 21.3063 55.9799 21.433 55.8835 21.5534L55.7344 21.7566C55.6396 21.8582 55.5447 21.9531 55.4431 22.0479L55.2195 22.2579C55.1246 22.3324 55.023 22.4001 54.9214 22.4678L54.6233 22.6643L54.3184 22.8065C54.1999 22.8643 54.0776 22.9141 53.9525 22.9555L53.6544 23.0436C53.5121 23.0436 53.3766 23.1046 53.2343 23.1249C52.7148 23.2124 52.183 23.1952 51.6703 23.0742C51.1575 22.9533 50.6742 22.731 50.2487 22.4204C49.8231 22.1099 49.4641 21.7174 49.1925 21.2661C48.921 20.8147 48.7426 20.3136 48.6677 19.7923C48.6677 19.6568 48.6677 19.4807 48.6202 19.3452C48.5728 19.2098 48.6202 19.1962 48.6202 19.1623V13.669C48.6202 13.6351 48.6202 13.5674 48.6202 13.4861C48.6202 13.4048 48.6202 13.1745 48.6677 13.039C48.8273 12.095 49.3151 11.2376 50.0452 10.618C50.7753 9.99845 51.7007 9.65643 52.6584 9.65226C52.8516 9.65319 53.0443 9.67132 53.2343 9.70645C53.3766 9.70645 53.5121 9.75387 53.6544 9.78773L53.9525 9.87579C54.0776 9.91723 54.1999 9.96701 54.3184 10.0248L54.6233 10.1671L54.9214 10.3635C55.023 10.4312 55.1246 10.499 55.2195 10.5735L55.4431 10.7834C55.5447 10.8783 55.6396 10.9731 55.7344 11.0747L55.8835 11.2779C55.9799 11.3983 56.0682 11.5251 56.1477 11.6572L56.2358 11.8333C56.3217 11.9871 56.3943 12.148 56.4526 12.3143C56.4702 12.3581 56.4838 12.4035 56.4933 12.4497C56.5572 12.6354 56.6071 12.8256 56.6423 13.0187C56.6857 13.242 56.7083 13.4687 56.7101 13.6961V19.1623C56.7083 19.3897 56.6857 19.6165 56.6423 19.8397C56.6004 20.0334 56.5438 20.2236 56.4729 20.4087V20.4425Z" fill="white"/>
<path d="M35.0897 6.93604V22.1969V25.7936C35.0897 26.8715 34.6614 27.9052 33.899 28.6674C33.1366 29.4296 32.1026 29.8578 31.0244 29.8578L37.9557 32.1676C38.7237 31.6797 39.3566 31.0064 39.7959 30.2098C40.2352 29.4131 40.4668 28.5187 40.4694 27.6089V6.93604H35.0897Z" fill="white"/>
<path d="M35.0154 22.3527C35.0154 22.3527 35.0154 22.224 35.0899 21.9869V19.1623C35.0899 19.1623 35.0899 19.2572 35.0899 19.3385C35.0899 19.4197 35.0899 19.65 35.0425 19.7855C34.9572 20.3412 34.7555 20.8725 34.4505 21.3448C34.1455 21.817 33.7441 22.2195 33.2726 22.5259C32.8011 22.8322 32.2702 23.0355 31.7147 23.1224C31.1592 23.2093 30.5915 23.1778 30.049 23.03C29.9474 23.03 29.839 22.9826 29.7441 22.9488C29.6492 22.9149 29.4934 22.8472 29.3782 22.793C29.2757 22.7524 29.1761 22.7049 29.0801 22.6507C28.9746 22.594 28.8728 22.5306 28.7752 22.4611C28.6715 22.3949 28.572 22.3225 28.4771 22.2443C28.4026 22.1834 28.328 22.1088 28.2535 22.0343C28.1519 21.9441 28.0568 21.8467 27.9689 21.7431C27.9133 21.6783 27.8612 21.6104 27.8131 21.5399C27.7174 21.4189 27.6291 21.2923 27.5489 21.1605C27.5489 21.1064 27.4947 21.0454 27.4608 20.9844C27.3789 20.831 27.3065 20.6726 27.244 20.5103C27.244 20.4629 27.244 20.4155 27.2033 20.3748C27.1402 20.1889 27.0904 19.9988 27.0543 19.8058C27.0157 19.5821 26.9953 19.3555 26.9933 19.1285V6.93606H21.5729V19.1285C21.5779 19.5704 21.6278 20.0107 21.722 20.4425C21.9058 21.3185 22.2653 22.148 22.779 22.881L22.1014 22.9623C20.8412 23.2333 18.9102 22.7794 18.9102 20.6999V13.7503C18.9102 13.7503 18.9102 13.6961 18.9102 13.669C18.9045 13.2252 18.8569 12.783 18.7679 12.3481C18.442 10.8387 17.61 9.48596 16.4098 8.51399C15.2096 7.54201 13.7132 7.00919 12.1687 7.0038C7.54782 7.0038 5.73201 9.51002 5.48809 10.4719C5.4592 10.5925 5.43658 10.7146 5.42034 10.8376V3.3393L0 1.53076V25.8208H5.42034V13.669C5.42034 13.6351 5.42034 13.5674 5.42034 13.4861C5.42034 13.4048 5.42034 13.1745 5.46099 13.039C5.62059 12.095 6.10844 11.2376 6.83852 10.618C7.56861 9.99845 8.49405 9.65643 9.45171 9.65226C9.64716 9.65318 9.84214 9.67131 10.0344 9.70645C10.1735 9.72639 10.3114 9.75352 10.4477 9.78773L10.7526 9.87579C10.8746 9.91643 10.9965 9.97062 11.1185 10.0248C11.2404 10.079 11.3217 10.1129 11.4166 10.1671L11.7147 10.3635C11.8163 10.4312 11.918 10.499 12.0128 10.5735L12.2432 10.7834C12.338 10.8783 12.4397 10.9731 12.5278 11.0747L12.6768 11.2779C12.7732 11.3983 12.8615 11.5251 12.9411 11.6572C12.9749 11.7182 13.002 11.7792 13.0291 11.8333C13.1145 11.9884 13.1892 12.1491 13.2527 12.3143C13.2527 12.3549 13.2527 12.4023 13.2934 12.4497C13.3573 12.6354 13.4072 12.8256 13.4424 13.0187C13.4801 13.2426 13.5005 13.4691 13.5034 13.6961V20.7338C13.5088 21.852 13.86 22.9412 14.509 23.8519C15.158 24.7626 16.0729 25.4504 17.1283 25.8208L23.4497 23.7074C24.0785 24.3732 24.8368 24.9036 25.678 25.2658C26.5192 25.6281 27.4256 25.8146 28.3416 25.814C32.9557 25.8208 34.7782 23.3145 35.0154 22.3527Z" fill="white"/>
<path d="M76.4335 0.41307C66.7582 2.32999 63.0859 4.22658 61.8325 5.72354C60.4368 7.38306 59.3595 10.465 61.5547 15.1185C66.2975 25.1095 74.5364 29.8103 79.1708 26.6335C83.6832 23.5719 90.4993 16.4596 87.4029 6.09609C86.8067 4.20626 86.5492 -1.58513 76.4335 0.41307ZM82.9921 15.64C81.0408 23.03 73.825 26.8096 67.4087 18.1463C63.6415 13.0796 66.0942 9.23902 70.1188 6.67861C84.1643 -2.16088 85.167 7.4508 82.9921 15.64Z" fill="#DC5D5B"/>
<path d="M48.5864 29.9053H49.1014V31.4632C49.1488 31.2058 49.4537 31.0703 49.9957 31.0703C50.2565 31.0456 50.5177 31.1127 50.7342 31.26C50.8114 31.3391 50.8707 31.4339 50.9081 31.5379C50.9455 31.6419 50.9602 31.7527 50.951 31.8628V33.8949H50.4429V31.8967C50.4516 31.8383 50.4516 31.779 50.4429 31.7206C50.43 31.6712 50.4069 31.6251 50.3751 31.5851C50.3051 31.5295 50.2247 31.4883 50.1387 31.4639C50.0526 31.4395 49.9626 31.4323 49.8738 31.4429C49.7146 31.4382 49.5555 31.4518 49.3995 31.4835C49.3108 31.4996 49.2312 31.5478 49.1759 31.619C49.1363 31.706 49.1177 31.8012 49.1217 31.8967V33.8678H48.6068L48.5864 29.9053Z" fill="white"/>
<path d="M52.6248 33.9083L51.5679 31.1582H52.1235L52.8823 33.3935L53.5598 31.1582H54.0748L52.7197 35.0733H52.1709L52.6248 33.9083Z" fill="white"/>
<path d="M55.45 33.8678C55.3237 33.845 55.2008 33.8063 55.0841 33.7527C54.8402 33.6307 54.7183 33.3666 54.7183 32.9466V29.9053H55.2264V31.05C55.2264 31.1516 55.2264 31.26 55.2264 31.3819C55.2264 31.2939 55.328 31.2193 55.4636 31.1584C55.6648 31.0936 55.8756 31.0639 56.0869 31.0703C56.8457 31.0703 57.2184 31.3345 57.2184 31.8493V32.9737C57.2223 33.1189 57.1993 33.2636 57.1506 33.4004C57.1143 33.5055 57.0526 33.6 56.9711 33.6756C56.8895 33.7512 56.7907 33.8056 56.6831 33.8339C56.5688 33.8717 56.4506 33.8967 56.3308 33.9084C56.0401 33.9349 55.7475 33.9349 55.4568 33.9084L55.45 33.8678ZM56.3986 33.5224C56.4447 33.5137 56.4885 33.4953 56.5271 33.4685C56.5656 33.4416 56.598 33.4069 56.6222 33.3666C56.6748 33.2594 56.6982 33.1402 56.6899 33.0211V31.9712C56.6982 31.8521 56.6748 31.7329 56.6222 31.6258C56.5991 31.5846 56.567 31.5491 56.5283 31.5221C56.4896 31.4951 56.4452 31.4773 56.3986 31.47C56.2486 31.4444 56.0967 31.4331 55.9446 31.4361C55.8007 31.4302 55.6568 31.4462 55.5178 31.4835C55.4259 31.5047 55.3459 31.5605 55.2942 31.6393C55.2438 31.7424 55.2205 31.8566 55.2264 31.9712V33.0482C55.2182 33.1673 55.2415 33.2865 55.2942 33.3937C55.3176 33.4332 55.3489 33.4675 55.3862 33.4943C55.4235 33.5211 55.466 33.5399 55.511 33.5494C55.6556 33.5808 55.8035 33.5944 55.9514 33.5901C56.1015 33.5947 56.2517 33.5811 56.3986 33.5494V33.5224Z" fill="white"/>
<path d="M58.1328 31.1586H58.6206V31.6057C58.6223 31.5111 58.6613 31.4211 58.729 31.3551C58.8134 31.2758 58.9124 31.2137 59.0204 31.1722C59.1296 31.1249 59.247 31.0996 59.3659 31.0977H59.6234V31.5379H59.3456C59.1642 31.5232 58.9821 31.5559 58.8171 31.6328C58.7632 31.6685 58.7201 31.7183 58.6926 31.7768C58.6651 31.8354 58.6543 31.9004 58.6613 31.9647V33.868H58.1328V31.1586Z" fill="white"/>
<path d="M60.3013 30.1426H60.8094V30.6709H60.3013V30.1426ZM60.3013 31.1586H60.8094V33.868H60.3013V31.1586Z" fill="white"/>
<path d="M62.1371 33.8678C61.9962 33.8232 61.8759 33.7295 61.7984 33.6036C61.723 33.4405 61.6882 33.2616 61.6967 33.0821V31.8357C61.6863 31.7228 61.7044 31.609 61.7494 31.5048C61.7943 31.4007 61.8648 31.3095 61.9542 31.2397C62.2144 31.0957 62.5115 31.032 62.8079 31.0568C63.0151 31.0531 63.2214 31.0852 63.4177 31.1516C63.5871 31.2126 63.6751 31.2939 63.6819 31.409V30.7316V29.9053H64.1901V33.8678H63.6887V33.5427C63.6887 33.6465 63.6074 33.7346 63.4448 33.8068C63.2305 33.8956 62.9989 33.935 62.7672 33.922C62.5557 33.9376 62.3429 33.9193 62.1371 33.8678ZM63.4922 33.502C63.5537 33.4742 63.6049 33.428 63.6389 33.3697C63.6729 33.3115 63.6879 33.2441 63.6819 33.1769V31.8222C63.6819 31.5783 63.4312 31.4564 62.9299 31.4564C62.7308 31.4404 62.5306 31.4634 62.3404 31.5242C62.2899 31.5543 62.2495 31.5986 62.2242 31.6517C62.1989 31.7047 62.1898 31.764 62.1981 31.8222V33.1769C62.1924 33.2401 62.2038 33.3037 62.2313 33.3609C62.2587 33.4181 62.3011 33.4669 62.3539 33.502C62.5179 33.5824 62.7003 33.6175 62.8824 33.6036C63.0929 33.6087 63.3017 33.5646 63.4922 33.4749V33.502Z" fill="white"/>
<path d="M66.8528 31.4632H66.2295V31.1584H66.8528V30.7181C66.8358 30.5927 66.8505 30.465 66.8954 30.3467C66.9404 30.2284 67.0143 30.1232 67.1103 30.0408C67.3374 29.894 67.6062 29.8251 67.8759 29.8443C68.0294 29.8357 68.1832 29.8357 68.3366 29.8443V30.1762C68.1876 30.1762 68.0453 30.1762 67.8895 30.1762C67.7486 30.1643 67.6078 30.2001 67.4897 30.2778C67.4432 30.3271 67.4082 30.3861 67.3871 30.4505C67.366 30.5149 67.3594 30.5831 67.3678 30.6504V31.1584H68.2757V31.4903H67.3678V33.8678H66.8528V31.4632Z" fill="white"/>
<path d="M69.1429 33.8679C69.0131 33.819 68.9049 33.7253 68.838 33.6037C68.7699 33.4339 68.7399 33.2513 68.7499 33.0686C68.7405 32.9014 68.7707 32.7343 68.838 32.5809C68.8679 32.5217 68.9099 32.4694 68.9612 32.4274C69.0126 32.3854 69.0722 32.3546 69.1361 32.3371C69.332 32.281 69.5355 32.2559 69.7392 32.2626H70.559V31.8358C70.5644 31.7523 70.5431 31.6693 70.498 31.5988C70.4494 31.537 70.3792 31.4958 70.3015 31.4836C70.1675 31.4587 70.0313 31.4474 69.895 31.4497C69.5799 31.4508 69.2652 31.4735 68.9532 31.5175V31.1585C69.3326 31.1246 69.6714 31.1043 69.9695 31.1043C70.1977 31.0987 70.4256 31.1237 70.6471 31.1788C70.7128 31.1962 70.7744 31.2268 70.828 31.2687C70.8816 31.3106 70.9261 31.363 70.9587 31.4226C71.0225 31.5959 71.0501 31.7803 71.04 31.9645V33.8679H70.5454V33.6105C70.5048 33.8205 70.2338 33.9221 69.7188 33.9221C69.5253 33.9316 69.3313 33.9133 69.1429 33.8679ZM69.8205 33.6037C69.9773 33.6061 70.1339 33.5925 70.288 33.5631C70.4573 33.5292 70.5454 33.4547 70.5454 33.326V32.5809H69.7866C69.6682 32.5774 69.5498 32.5888 69.4343 32.6148C69.4008 32.6252 69.3704 32.6436 69.3456 32.6684C69.3208 32.6932 69.3024 32.7236 69.292 32.757C69.2774 32.8649 69.2774 32.9743 69.292 33.0822C69.288 33.1898 69.3017 33.2974 69.3326 33.4005C69.3589 33.4684 69.4097 33.524 69.4749 33.5563C69.5719 33.594 69.6759 33.6102 69.7798 33.6037H69.8205Z" fill="white"/>
<path d="M71.9887 33.8677V33.4816C72.3022 33.5378 72.6191 33.574 72.9372 33.59C73.1143 33.5995 73.2916 33.5742 73.4589 33.5154C73.5104 33.4942 73.5539 33.4572 73.5831 33.4097C73.6123 33.3623 73.6258 33.3068 73.6215 33.2513V32.9736C73.6261 32.9256 73.6171 32.8773 73.5955 32.8342C73.5739 32.7911 73.5407 32.7549 73.4996 32.7297C73.3811 32.6672 73.2467 32.6413 73.1134 32.6552H72.8017C72.5623 32.6768 72.3228 32.6146 72.1242 32.4791C72.0504 32.4202 71.9917 32.3447 71.9528 32.2588C71.914 32.1728 71.8961 32.0788 71.9006 31.9846V31.734C71.9006 31.2824 72.3071 31.0566 73.1202 31.0566L73.9535 31.1041V31.4698C73.671 31.4257 73.3858 31.4008 73.0998 31.3953C72.9137 31.3821 72.7269 31.4075 72.551 31.4698C72.5021 31.4951 72.4618 31.5344 72.4353 31.5826C72.4087 31.6309 72.3972 31.6859 72.402 31.7408V31.9711C72.402 32.154 72.5714 32.2488 72.9033 32.2488H73.2218C73.7977 32.2488 74.089 32.4655 74.089 32.8923V33.1294C74.0969 33.2465 74.0742 33.3636 74.0231 33.4693C73.972 33.575 73.8943 33.6656 73.7977 33.7322C73.5181 33.8692 73.2072 33.93 72.8966 33.9083C72.5934 33.9151 72.2901 33.9015 71.9887 33.8677Z" fill="white"/>
<path d="M74.9629 29.9053H75.4778V31.4632C75.5253 31.2058 75.8301 31.0703 76.3722 31.0703C76.6329 31.0456 76.8941 31.1127 77.1107 31.26C77.1879 31.3391 77.2472 31.4339 77.2846 31.5379C77.322 31.6419 77.3366 31.7527 77.3275 31.8628V33.8949H76.8194V31.8967C76.8281 31.8383 76.8281 31.779 76.8194 31.7206C76.8065 31.6712 76.7834 31.6251 76.7516 31.5851C76.6816 31.5295 76.6012 31.4883 76.5151 31.4639C76.4291 31.4395 76.339 31.4323 76.2502 31.4429C76.0911 31.4382 75.9319 31.4518 75.7759 31.4835C75.6873 31.4996 75.6077 31.5478 75.5524 31.619C75.5127 31.706 75.4942 31.8012 75.4981 31.8967V33.8678H74.9832L74.9629 29.9053Z" fill="white"/>
<path d="M78.3506 30.1426H78.8587V30.6709H78.3506V30.1426ZM78.3506 31.1315H78.8587V33.8409H78.3506V31.1315Z" fill="white"/>
<path d="M80.4989 33.9018C80.3742 33.8811 80.2532 33.8423 80.1398 33.7867C80.0187 33.7334 79.922 33.6368 79.8688 33.5157C79.8063 33.3515 79.7764 33.1766 79.7807 33.0009V32.0526C79.7781 31.9014 79.7986 31.7506 79.8417 31.6056C79.8765 31.4954 79.9342 31.3938 80.011 31.3076C80.0798 31.233 80.1696 31.181 80.2685 31.1585C80.3827 31.1201 80.5009 31.0951 80.6208 31.084H81.0477C81.1943 31.0749 81.3414 31.0749 81.4881 31.084C81.5956 31.0927 81.7022 31.1109 81.8065 31.1382C81.9099 31.1631 82.004 31.2172 82.0775 31.294C82.1544 31.3777 82.2122 31.4771 82.2469 31.5853C82.2899 31.735 82.3104 31.8902 82.3079 32.0459V32.9942C82.3237 33.2403 82.2436 33.4831 82.0843 33.6715C82.0121 33.7402 81.9234 33.7891 81.8269 33.8138C81.7116 33.8467 81.5937 33.8694 81.4745 33.8815H81.0477C80.8652 33.8975 80.682 33.9043 80.4989 33.9018ZM81.3932 33.5767C81.4641 33.569 81.533 33.5483 81.5965 33.5157C81.6307 33.5032 81.6617 33.4834 81.6875 33.4576C81.7132 33.4319 81.733 33.4009 81.7456 33.3667C81.7763 33.2728 81.79 33.1742 81.7862 33.0755V31.9646C81.7946 31.8396 81.7737 31.7143 81.7252 31.5988C81.7029 31.5584 81.6719 31.5235 81.6344 31.4965C81.5969 31.4696 81.5538 31.4513 81.5084 31.443C81.3563 31.4169 81.202 31.4056 81.0477 31.4092C80.8911 31.4054 80.7346 31.4167 80.5802 31.443C80.5348 31.4513 80.4917 31.4696 80.4542 31.4965C80.4167 31.5235 80.3857 31.5584 80.3634 31.5988C80.3149 31.7143 80.294 31.8396 80.3024 31.9646V33.0755C80.2986 33.1742 80.3123 33.2728 80.343 33.3667C80.3724 33.4332 80.4256 33.4864 80.4921 33.5157C80.5576 33.5493 80.6289 33.57 80.7021 33.5767C80.8171 33.5857 80.9327 33.5857 81.0477 33.5767C81.1627 33.5853 81.2782 33.5853 81.3932 33.5767Z" fill="white"/>
<path d="M83.2427 31.1585H83.7508V31.4904C83.805 31.233 84.1032 31.0975 84.652 31.0975C84.9125 31.0751 85.173 31.142 85.3905 31.2872C85.4654 31.3676 85.5227 31.4627 85.5589 31.5665C85.5951 31.6703 85.6092 31.7805 85.6005 31.89V33.9221H85.0924V31.89C85.1006 31.8316 85.1006 31.7723 85.0924 31.7139C85.0824 31.6635 85.059 31.6166 85.0246 31.5784C84.9546 31.5228 84.8742 31.4816 84.7881 31.4572C84.7021 31.4328 84.6121 31.4256 84.5232 31.4362C84.3686 31.4317 84.214 31.4453 84.0625 31.4768C83.9708 31.4943 83.8888 31.545 83.8321 31.6191C83.786 31.7016 83.7648 31.7957 83.7712 31.89V33.8679H83.263L83.2427 31.1585Z" fill="white"/>
<path d="M88.7986 33.8678C88.6723 33.845 88.5494 33.8063 88.4328 33.7527C88.1889 33.6307 88.0669 33.3666 88.0669 32.9466V29.9053H88.5751V31.05C88.5751 31.1516 88.5751 31.26 88.5751 31.3819C88.5751 31.2939 88.6767 31.2193 88.8122 31.1584C89.0134 31.0936 89.2242 31.0639 89.4355 31.0703C90.1944 31.0703 90.567 31.3345 90.567 31.8493V32.9737C90.5709 33.1189 90.548 33.2636 90.4993 33.4004C90.4595 33.5073 90.3971 33.6044 90.3163 33.6849C90.2342 33.7519 90.1398 33.8025 90.0385 33.8339C89.9219 33.8717 89.8015 33.8967 89.6794 33.9084C89.5531 33.9161 89.4264 33.9161 89.3 33.9084C89.1321 33.9081 88.9644 33.8945 88.7986 33.8678ZM89.754 33.5224C89.8458 33.5011 89.9259 33.4453 89.9776 33.3666C90.0277 33.2586 90.0509 33.14 90.0453 33.0211V31.9712C90.0509 31.8523 90.0277 31.7338 89.9776 31.6258C89.9531 31.5857 89.9206 31.5512 89.8821 31.5244C89.8436 31.4976 89.8 31.479 89.754 31.47C89.6017 31.4448 89.4475 31.4335 89.2932 31.4361C89.1494 31.4302 89.0055 31.4462 88.8664 31.4835C88.7746 31.5047 88.6945 31.5605 88.6428 31.6393C88.5948 31.7432 88.5716 31.8568 88.5751 31.9712V33.0482C88.5668 33.1673 88.5902 33.2865 88.6428 33.3937C88.6662 33.4332 88.6975 33.4675 88.7349 33.4943C88.7722 33.5211 88.8147 33.5399 88.8596 33.5494C89.0042 33.5808 89.1521 33.5944 89.3 33.5901C89.4524 33.5943 89.6048 33.5807 89.754 33.5494V33.5224Z" fill="white"/>
<path d="M91.4683 31.1586H91.9493V31.6057C91.951 31.5111 91.99 31.4211 92.0577 31.3551C92.1421 31.2758 92.241 31.2137 92.3491 31.1722C92.4583 31.1249 92.5757 31.0996 92.6946 31.0977H92.9453V31.5379H92.6607C92.4815 31.5222 92.3013 31.5549 92.139 31.6328C92.0833 31.667 92.0384 31.7164 92.0096 31.7752C91.9808 31.8339 91.9693 31.8996 91.9764 31.9647V33.868H91.4683V31.1586Z" fill="white"/>
<path d="M93.8532 33.8677C93.721 33.8228 93.6116 33.728 93.5483 33.6035C93.4775 33.4344 93.4451 33.2516 93.4534 33.0684C93.4473 32.9014 93.4773 32.735 93.5415 32.5807C93.6056 32.464 93.7125 32.3766 93.8396 32.3369C94.0356 32.2813 94.239 32.2561 94.4427 32.2624H95.2693V31.8356C95.2747 31.7521 95.2533 31.6691 95.2083 31.5986C95.1567 31.5368 95.0845 31.4959 95.005 31.4834C94.8733 31.458 94.7393 31.4466 94.6053 31.4495C94.2902 31.4506 93.9755 31.4733 93.6635 31.5173V31.1583C94.0361 31.1244 94.341 31.1041 94.6798 31.1041C94.908 31.0974 95.136 31.1224 95.3573 31.1786C95.424 31.194 95.4864 31.2238 95.5403 31.2659C95.5941 31.3081 95.6381 31.3615 95.669 31.4225C95.739 31.5941 95.7691 31.7794 95.7571 31.9643V33.8677H95.2625V33.6103C95.2218 33.8203 94.944 33.9219 94.4359 33.9219C94.2401 33.932 94.0438 33.9138 93.8532 33.8677ZM94.5307 33.6035C94.6875 33.6059 94.8442 33.5923 94.9982 33.5629C95.1676 33.529 95.2557 33.4545 95.2557 33.3258V32.5807H94.463C94.3468 32.5772 94.2307 32.5885 94.1174 32.6146C94.084 32.625 94.0536 32.6434 94.0288 32.6682C94.004 32.693 93.9856 32.7234 93.9751 32.7568C93.9255 32.9685 93.9255 33.1887 93.9751 33.4003C93.9986 33.4677 94.0471 33.5235 94.1107 33.5561C94.2102 33.5932 94.3163 33.6093 94.4223 33.6035H94.5307Z" fill="white"/>
<path d="M96.8003 31.1584H97.3084V31.4903C97.3627 31.2329 97.6608 31.0974 98.2096 31.0974C98.4702 31.0738 98.7311 31.1408 98.9481 31.287C99.0244 31.3665 99.0827 31.4615 99.119 31.5655C99.1552 31.6696 99.1686 31.7802 99.1581 31.8899V33.922H98.65V31.8899C98.6582 31.8315 98.6582 31.7722 98.65 31.7138C98.6427 31.6638 98.6216 31.6169 98.589 31.5783C98.5181 31.5218 98.4366 31.4801 98.3493 31.4557C98.2621 31.4313 98.1708 31.4246 98.0808 31.4361C97.9262 31.432 97.7717 31.4457 97.6201 31.4767C97.5752 31.4842 97.5323 31.5006 97.4938 31.5251C97.4554 31.5495 97.4223 31.5814 97.3965 31.619C97.3447 31.6993 97.3208 31.7946 97.3288 31.8899V33.8678H96.8206L96.8003 31.1584Z" fill="white"/>
<path d="M100.52 33.8678C100.381 33.8234 100.262 33.7294 100.188 33.6036C100.107 33.4423 100.069 33.2624 100.08 33.0821V31.8357C100.069 31.7228 100.087 31.609 100.132 31.5048C100.177 31.4007 100.248 31.3095 100.337 31.2397C100.598 31.0964 100.894 31.0328 101.191 31.0568C101.4 31.0537 101.609 31.0857 101.807 31.1516C101.977 31.2126 102.065 31.2939 102.072 31.409V29.9053H102.58V33.8678H102.078V33.5427C102.078 33.6465 101.997 33.7346 101.834 33.8068C101.62 33.8961 101.388 33.9354 101.157 33.922C100.943 33.9376 100.728 33.9193 100.52 33.8678ZM101.875 33.502C101.935 33.4727 101.985 33.4261 102.019 33.3682C102.053 33.3104 102.069 33.2438 102.065 33.1769V31.8222C102.065 31.5783 101.807 31.4564 101.306 31.4564C101.109 31.4407 100.911 31.4637 100.723 31.5242C100.673 31.5543 100.632 31.5986 100.607 31.6517C100.582 31.7047 100.573 31.764 100.581 31.8222V33.1769C100.574 33.2403 100.584 33.3044 100.612 33.3619C100.64 33.4194 100.683 33.468 100.737 33.502C100.9 33.5834 101.083 33.6185 101.265 33.6036C101.478 33.6097 101.689 33.5657 101.882 33.4749L101.875 33.502Z" fill="white"/>
</g>
<defs>
<clipPath id="clip0_51847_6082">
<rect width="118.773" height="35.0464" fill="white"/>
</clipPath>
</defs>
</svg>
