<svg width="30" height="30" viewBox="0 0 30 30" fill="none" xmlns="http://www.w3.org/2000/svg">
<circle cx="15" cy="15" r="15" fill="#0B0B0B"/>
<path d="M24.9556 11.3109C24.9556 11.2912 24.9556 11.2912 24.9556 11.3109C24.7798 10.2864 24.1741 9.45881 23.2558 8.94652C22.9627 7.96135 22.064 5.12404 16.3588 6.26685C13.1351 6.91706 10.6733 7.60668 9.03207 8.35542H7.89886C6.86334 8.35542 6.00366 9.20267 6.00366 10.2667V12.4932C5.96459 13.5374 6.23812 14.6999 6.82426 15.9216C8.73899 19.9805 11.7283 23.0148 14.6395 23.803C15.1279 23.9409 15.5969 24 16.0462 24C16.8668 24 17.6093 23.7833 18.254 23.3498C19.8171 22.2661 23.5293 19.2318 23.9787 14.365C24.4281 13.9906 24.6625 13.4586 24.6625 13.4389C24.7602 13.2222 24.8384 13.0054 24.897 12.769C24.897 12.769 24.9947 12.3749 24.9947 12.0006C25.0142 11.7247 24.9751 11.3109 24.9556 11.3109ZM13.3891 22.2464V22.8572C13.0374 22.6799 12.7052 22.4828 12.3535 22.2464H13.3891ZM9.59867 18.4633V19.6258C9.3056 19.2515 9.01253 18.8771 8.73899 18.4633H9.59867ZM7.89886 14.6408V17.0841C7.64486 16.6506 7.41041 16.1974 7.19549 15.7245C7.01964 15.3502 6.88288 14.9758 6.76565 14.6211H7.89886V14.6408ZM10.1262 8.35542C10.5951 8.17809 11.1031 8.00075 11.6697 7.84313V8.35542H10.1262ZM12.08 8.35542V7.7052C12.4903 7.58698 12.9201 7.46876 13.3891 7.35054V8.35542H12.08ZM13.7407 21.8129H12.08V20.1578H12.7834C13.6626 20.7686 14.5613 21.1036 15.4406 21.143V23.5468C15.2061 23.5074 14.9716 23.468 14.7372 23.4089C14.4246 23.3301 14.112 23.2119 13.7798 23.0739V21.8917C13.7994 21.8523 13.7798 21.8129 13.7407 21.8129ZM12.08 19.744V19.6061C12.1386 19.6455 12.1777 19.6849 12.2363 19.744H12.08ZM16.7301 6.62151C16.6324 7.1338 16.5933 7.6855 16.6128 8.21749C16.3784 8.2766 16.1439 8.35542 15.8899 8.45394V6.79884C16.0853 6.75943 16.2807 6.72003 16.4761 6.68062C16.5347 6.66092 16.6324 6.64121 16.7301 6.62151ZM16.9059 22.3252L16.9841 22.3055C16.9841 21.7538 17.1404 21.2021 17.4334 20.7095C17.5116 20.611 18.1368 19.7243 18.9965 19.3894C19.0356 19.3697 19.0942 19.35 19.1528 19.3303L19.1919 19.3106C19.4459 19.2318 19.6999 19.1923 19.9539 19.1923C20.4814 19.1923 20.9894 19.3303 21.4387 19.6061C21.4387 19.6258 21.4583 19.6258 21.4583 19.6455C21.0871 20.1578 20.6572 20.6701 20.1883 21.143C19.1333 21.2218 18.4103 21.8523 18.254 22.8178C18.1759 22.8769 18.0977 22.936 18.0196 22.9754C17.7265 23.1725 17.3944 23.3301 17.0427 23.4286C17.0036 23.0542 16.9841 22.6996 16.9841 22.3252V22.3055H16.9059V22.3252ZM10.1457 15.961H9.95035C9.7159 15.3108 9.67682 14.6605 9.77451 14.0694C10.0285 12.8084 10.9468 11.6459 12.5489 10.641C14.8544 9.16326 16.7301 8.41453 18.0977 8.41453C18.215 8.41453 18.3322 8.41453 18.4885 8.43423C18.9574 9.22237 19.8171 9.38 20.1883 9.41941C21.0675 10.6804 21.1261 13.1237 20.3446 16.0989C20.0515 17.1826 19.5826 18.1678 18.9574 18.9559C17.9805 19.2712 17.2771 20.1972 17.1208 20.414C16.8668 20.5322 16.5933 20.611 16.3393 20.6504C14.9326 20.9263 13.4672 20.3549 12.08 19.0347V17.9116C12.08 16.8279 11.2203 15.961 10.1457 15.961ZM10.009 18.0495C9.98943 18.0298 9.96989 18.0298 9.95035 18.0298H8.46546C8.40685 17.951 8.36777 17.8722 8.30916 17.7934V16.3747H9.85266H9.8722H10.1457C10.9859 16.3747 11.6697 17.0644 11.6697 17.9116V18.9953V21.7144C11.1031 21.2612 10.556 20.7095 10.0285 20.1184V18.1087C10.0285 18.089 10.009 18.0692 10.009 18.0495ZM9.59867 10.8578V12.1385H8.30916V10.8578H9.59867ZM15.4601 8.61156C14.5223 8.98593 13.4672 9.55733 12.334 10.2667C12.2558 10.3258 12.1777 10.3652 12.0995 10.4243H7.99655C7.95747 10.4243 7.9184 10.4637 7.9184 10.5031V12.1385H6.45304V10.2667C6.45304 9.45881 7.11733 8.78889 7.9184 8.78889H13.7603C13.7994 8.78889 13.8384 8.74949 13.8384 8.71008V7.25202C14.3464 7.1338 14.913 6.99588 15.4796 6.87765V8.61156H15.4601ZM9.14929 15.961H8.30916V14.6408H9.3056C9.3056 15.0743 9.36421 15.5078 9.50098 15.961H9.14929ZM10.0285 10.8578H11.4939C10.8686 11.3504 10.3802 11.8626 10.0285 12.4143V10.8578ZM6.4335 12.572H9.93082C9.65728 13.0251 9.4619 13.498 9.38375 13.9906C9.36421 14.0694 9.36421 14.1482 9.34467 14.2271H6.64842C6.51165 13.7148 6.4335 13.2222 6.4335 12.7493C6.4335 12.7493 6.4335 12.7493 6.4335 12.7296V12.572ZM18.3127 8.00075C17.9219 7.98105 17.4921 8.02046 17.0231 8.11898C17.0036 7.58698 17.0622 7.05499 17.1794 6.54269C17.6288 6.48358 18.0587 6.42447 18.469 6.42447C18.3322 6.70032 18.254 6.99588 18.2345 7.31113C18.215 7.54757 18.2345 7.78402 18.3127 8.00075ZM21.8686 12.8281C21.7514 13.1631 21.5364 13.3601 21.2434 13.4389C21.302 12.7493 21.3215 12.0991 21.2629 11.508C21.3801 11.4489 21.4974 11.3898 21.595 11.3504C21.81 11.5671 22.1617 12.0597 21.8686 12.8281ZM19.5826 18.818C19.8952 18.3648 20.1688 17.8525 20.3837 17.2811C20.6768 17.1629 20.9698 17.1038 21.2238 17.1629C21.5169 17.2417 21.7318 17.4387 21.8686 17.7737C22.1617 18.5421 21.81 19.0347 21.6146 19.2318C21.1066 18.9362 20.5205 18.7786 19.9343 18.7786C19.8366 18.7983 19.7194 18.7983 19.5826 18.818ZM20.5791 16.7885C20.5986 16.7491 20.5986 16.7097 20.6181 16.6703C20.8526 16.4339 21.1261 16.2762 21.4387 16.158C21.9858 15.9807 22.572 16.0201 23.1581 16.2762C22.9627 16.9264 22.7087 17.557 22.3766 18.1678C22.357 17.9904 22.318 17.8131 22.2593 17.6358C22.0444 17.0447 21.6341 16.8279 21.3215 16.7491C21.2238 16.7294 21.1066 16.7097 20.9894 16.7097C20.8721 16.7294 20.7354 16.7491 20.5791 16.7885ZM21.3215 15.7442C21.1457 15.8033 20.9698 15.8822 20.8135 15.9807C20.9112 15.5669 21.0089 15.1728 21.0675 14.7591C21.1652 14.7985 21.2434 14.8379 21.3215 14.8576C22.0249 15.094 22.8064 15.0152 23.5098 14.6408C23.4512 15.0546 23.373 15.4684 23.2753 15.8625C22.6306 15.5866 21.9467 15.5472 21.3215 15.7442ZM21.5755 10.8775C21.5364 10.8972 21.4974 10.9169 21.4778 10.9366C21.3997 10.976 21.3215 11.0351 21.2238 11.0745C21.1261 10.4243 20.9308 9.85288 20.6768 9.3997C21.0089 9.32089 21.2824 9.12385 21.4387 8.84801C21.6341 8.53275 21.6537 8.13868 21.4974 7.84313C21.3997 7.6658 21.1066 7.35054 20.4618 7.37024C20.3446 7.37024 20.2469 7.46876 20.2665 7.58698C20.2665 7.7052 20.3642 7.78402 20.4814 7.78402C20.8135 7.78402 21.048 7.86283 21.1457 8.04016C21.2434 8.19779 21.2238 8.41453 21.1066 8.61156C20.9503 8.86771 20.6377 9.02534 20.3055 9.00563C20.286 9.00563 20.286 9.00563 20.2665 9.00563H20.2274C20.2078 9.00563 19.1919 8.92682 18.8793 8.2372C18.723 7.96135 18.6448 7.64609 18.6643 7.31113C18.6839 6.99588 18.7816 6.68062 18.9574 6.40477C21.7123 6.44418 22.4938 7.88253 22.8455 8.98593C22.6696 9.75437 22.2203 10.444 21.5755 10.8775ZM23.7442 14.0103C23.6661 14.0891 23.5879 14.1482 23.4902 14.1877C22.8259 14.6014 22.103 14.6999 21.4387 14.4832C21.3411 14.4438 21.2434 14.4044 21.1261 14.3453C21.1457 14.1877 21.1652 14.0497 21.1847 13.8921C21.2238 13.8921 21.2629 13.8724 21.302 13.8724C21.6146 13.7936 22.0054 13.5966 22.2398 12.9857C22.5915 12.0597 22.1812 11.4095 21.9272 11.1139C22.4547 10.7198 22.8455 10.1878 23.0604 9.55733V9.53763L23.119 9.3603C24.0959 9.9317 24.4281 10.7789 24.5062 11.3898C24.5062 11.4686 24.5844 12.1188 24.4476 12.6114C24.2913 13.104 24.0568 13.5374 23.9201 13.7542C23.9005 13.8527 23.8224 13.9315 23.7442 14.0103ZM15.8704 21.143C16.0658 21.1233 16.2416 21.1036 16.4175 21.0839C16.5542 21.0642 16.691 21.0248 16.8473 20.9854C16.6519 21.4188 16.5738 21.872 16.5738 22.3449C16.5738 22.7587 16.5933 23.1528 16.6519 23.5468C16.4175 23.5862 16.1439 23.6059 15.8899 23.5862V21.143H15.8704ZM19.6022 21.7341C19.3482 21.9705 19.0942 22.1873 18.8402 22.3843C19.016 22.0888 19.27 21.872 19.6022 21.7341Z" fill="white"/>
</svg>
