<svg width="176" height="176" viewBox="0 0 176 176" fill="none" xmlns="http://www.w3.org/2000/svg">
<g filter="url(#filter0_d_51847_6121)">
<path d="M163.395 82.9474C163.395 126.825 127.825 162.395 83.9474 162.395C40.0698 162.395 4.5 126.825 4.5 82.9474C4.5 39.0698 40.0698 3.5 83.9474 3.5C127.825 3.5 163.395 39.0698 163.395 82.9474Z" fill="url(#paint0_linear_51847_6121)" stroke="url(#paint1_linear_51847_6121)"/>
<path d="M134.861 63.2762C134.861 63.171 134.861 63.171 134.861 63.2762C133.914 57.8061 130.653 53.3879 125.709 50.6529C124.131 45.3932 119.292 30.2453 88.5757 36.3465C71.2187 39.8179 57.9643 43.4997 49.128 47.4971H43.0268C37.4515 47.4971 32.8229 52.0204 32.8229 57.7009V69.5878C32.6126 75.1631 34.0853 81.3695 37.2411 87.8916C47.5501 109.562 63.6448 125.761 79.3187 129.969C81.9485 130.705 84.4732 131.021 86.8926 131.021C91.3108 131.021 95.3081 129.864 98.7795 127.55C107.195 121.764 127.182 105.564 129.601 79.5812C132.021 77.5826 133.283 74.7423 133.283 74.6371C133.809 73.48 134.23 72.3229 134.545 71.0605C134.545 71.0605 135.071 68.9566 135.071 66.958C135.177 65.4852 134.966 63.2762 134.861 63.2762ZM72.5863 121.659V124.92C70.6928 123.973 68.9045 122.921 67.011 121.659H72.5863ZM52.1786 101.462V107.668C50.6007 105.669 49.0228 103.671 47.5501 101.462H52.1786ZM43.0268 81.054V94.098C41.6592 91.7837 40.3969 89.3643 39.2398 86.8396C38.293 84.8409 37.5567 82.8423 36.9255 80.9488H43.0268V81.054ZM55.0189 47.4971C57.5435 46.5503 60.2786 45.6036 63.3292 44.762V47.4971H55.0189ZM65.5383 47.4971V44.0257C67.7473 43.3945 70.0616 42.7634 72.5863 42.1322V47.4971H65.5383ZM74.4797 119.345H65.5383V110.508H69.3252C74.059 113.769 78.8979 115.558 83.6316 115.768V128.602C82.3693 128.391 81.107 128.181 79.8446 127.865C78.1615 127.444 76.4784 126.813 74.6901 126.077V119.765C74.7953 119.555 74.6901 119.345 74.4797 119.345ZM65.5383 108.299V107.563C65.8538 107.773 66.0642 107.984 66.3798 108.299H65.5383ZM90.5744 38.24C90.0485 40.9751 89.8381 43.9205 89.9433 46.7607C88.6809 47.0763 87.4186 47.4971 86.0511 48.0231V39.1868C87.103 38.9764 88.155 38.766 89.2069 38.5556C89.5225 38.4504 90.0485 38.3452 90.5744 38.24ZM91.5212 122.08L91.9419 121.974C91.9419 119.029 92.7835 116.084 94.3614 113.454C94.7822 112.928 98.1484 108.194 102.777 106.406C102.987 106.3 103.303 106.195 103.618 106.09L103.829 105.985C105.196 105.564 106.564 105.354 107.931 105.354C110.772 105.354 113.507 106.09 115.926 107.563C115.926 107.668 116.031 107.668 116.031 107.773C114.033 110.508 111.718 113.243 109.194 115.768C103.513 116.189 99.6211 119.555 98.7795 124.709C98.3588 125.025 97.938 125.341 97.5172 125.551C95.9393 126.603 94.151 127.444 92.2575 127.97C92.0471 125.972 91.9419 124.078 91.9419 122.08V121.974H91.5212V122.08ZM55.1241 88.102H54.0721C52.8098 84.6306 52.5994 81.1591 53.1254 78.0033C54.4929 71.2709 59.437 65.0645 68.0629 59.6996C80.4758 51.81 90.5744 47.8127 97.938 47.8127C98.5692 47.8127 99.2003 47.8127 100.042 47.9179C102.567 52.1256 107.195 52.9672 109.194 53.1776C113.927 59.91 114.243 72.954 110.035 88.8383C108.457 94.624 105.933 99.8837 102.567 104.091C97.3068 105.775 93.5199 110.719 92.6783 111.876C91.3108 112.507 89.8381 112.928 88.4705 113.138C80.8966 114.611 73.007 111.56 65.5383 104.512V98.5162C65.5383 92.7305 60.9097 88.102 55.1241 88.102ZM54.3877 99.2525C54.2825 99.1473 54.1773 99.1473 54.0721 99.1473H46.0774C45.7618 98.7265 45.5514 98.3058 45.2358 97.885V90.311H53.5462H53.6513H55.1241C59.6474 90.311 63.3292 93.9928 63.3292 98.5162V104.302V118.819C60.2786 116.399 57.3331 113.454 54.4929 110.298V99.5681C54.4929 99.4629 54.3877 99.3577 54.3877 99.2525ZM52.1786 60.8567V67.6943H45.2358V60.8567H52.1786ZM83.7368 48.8646C78.6875 50.8633 73.007 53.9139 66.9058 57.7009C66.485 58.0165 66.0642 58.2269 65.6435 58.5424H43.5527C43.3423 58.5424 43.132 58.7528 43.132 58.9632V67.6943H35.2424V57.7009C35.2424 53.3879 38.819 49.8114 43.132 49.8114H74.5849C74.7953 49.8114 75.0057 49.601 75.0057 49.3906V41.6062C77.7408 40.9751 80.7914 40.2387 83.842 39.6075V48.8646H83.7368ZM49.7592 88.102H45.2358V81.054H50.6007C50.6007 83.3682 50.9163 85.6825 51.6527 88.102H49.7592ZM54.4929 60.8567H62.3824C59.0162 63.4866 56.3864 66.2216 54.4929 69.167V60.8567ZM35.1372 70.0086H53.9669C52.4942 72.4281 51.4423 74.9527 51.0215 77.5826C50.9163 78.0033 50.9163 78.4241 50.8111 78.8449H36.2943C35.558 76.1098 35.1372 73.48 35.1372 70.9553C35.1372 70.9553 35.1372 70.9553 35.1372 70.8501V70.0086ZM99.0951 45.6036C96.9912 45.4984 94.677 45.7088 92.1523 46.2348C92.0471 43.3945 92.3627 40.5543 92.9939 37.8192C95.4133 37.5037 97.7276 37.1881 99.9367 37.1881C99.2003 38.6608 98.7795 40.2387 98.6744 41.9218C98.5692 43.1841 98.6744 44.4465 99.0951 45.6036ZM118.24 71.3761C117.609 73.1644 116.452 74.2163 114.874 74.6371C115.19 70.9553 115.295 67.4839 114.979 64.3281C115.611 64.0125 116.242 63.697 116.768 63.4866C117.925 64.6437 119.818 67.2735 118.24 71.3761ZM105.933 103.355C107.616 100.936 109.089 98.2006 110.246 95.1499C111.824 94.5188 113.402 94.2032 114.769 94.5188C116.347 94.9396 117.504 95.9915 118.24 97.7798C119.818 101.882 117.925 104.512 116.873 105.564C114.138 103.986 110.982 103.145 107.826 103.145C107.3 103.25 106.669 103.25 105.933 103.355ZM111.298 92.5201C111.403 92.3097 111.403 92.0993 111.508 91.8889C112.77 90.6266 114.243 89.7851 115.926 89.1539C118.872 88.2071 122.027 88.4175 125.183 89.7851C124.131 93.2565 122.764 96.6227 120.975 99.8837C120.87 98.9369 120.66 97.9902 120.344 97.0434C119.187 93.8876 116.978 92.7305 115.295 92.3097C114.769 92.2045 114.138 92.0993 113.507 92.0993C112.876 92.2045 112.139 92.3097 111.298 92.5201ZM115.295 86.9448C114.348 87.2604 113.401 87.6812 112.56 88.2071C113.086 85.9981 113.612 83.8942 113.927 81.6851C114.453 81.8955 114.874 82.1059 115.295 82.2111C119.082 83.4734 123.29 83.0526 127.077 81.054C126.761 83.263 126.34 85.4721 125.814 87.576C122.343 86.1033 118.661 85.8929 115.295 86.9448ZM116.663 60.9619C116.452 61.0671 116.242 61.1723 116.137 61.2775C115.716 61.4879 115.295 61.8035 114.769 62.0138C114.243 58.5424 113.191 55.4918 111.824 53.0724C113.612 52.6516 115.085 51.5996 115.926 50.1269C116.978 48.4438 117.083 46.34 116.242 44.762C115.716 43.8153 114.138 42.1322 110.666 42.2374C110.035 42.2374 109.509 42.7634 109.615 43.3945C109.615 44.0257 110.14 44.4465 110.772 44.4465C112.56 44.4465 113.822 44.8672 114.348 45.814C114.874 46.6555 114.769 47.8127 114.138 48.8646C113.296 50.2321 111.613 51.0737 109.825 50.9685C109.72 50.9685 109.72 50.9685 109.615 50.9685H109.404C109.299 50.9685 103.829 50.5477 102.146 46.8659C101.304 45.3932 100.883 43.7101 100.989 41.9218C101.094 40.2387 101.62 38.5556 102.567 37.0829C117.399 37.2933 121.607 44.9724 123.5 50.8633C122.553 54.9659 120.134 58.6476 116.663 60.9619ZM128.339 77.6877C127.918 78.1085 127.497 78.4241 126.972 78.6345C123.395 80.8436 119.503 81.3695 115.926 80.2124C115.4 80.002 114.874 79.7916 114.243 79.476C114.348 78.6345 114.453 77.8981 114.559 77.0566C114.769 77.0566 114.979 76.9514 115.19 76.9514C116.873 76.5306 118.977 75.4787 120.239 72.2177C122.133 67.2735 119.924 63.8021 118.556 62.2242C121.396 60.1204 123.5 57.2801 124.657 53.9139V53.8087L124.973 52.862C130.233 55.9126 132.021 60.4359 132.442 63.697C132.442 64.1177 132.862 67.5891 132.126 70.219C131.284 72.8488 130.022 75.1631 129.286 76.3202C129.181 76.8462 128.76 77.267 128.339 77.6877ZM85.9459 115.768C86.9978 115.663 87.9446 115.558 88.8913 115.452C89.6277 115.347 90.364 115.137 91.2056 114.926C90.1536 117.241 89.7329 119.66 89.7329 122.185C89.7329 124.394 89.8381 126.498 90.1536 128.602C88.8913 128.812 87.4186 128.917 86.0511 128.812V115.768H85.9459ZM106.038 118.924C104.67 120.186 103.303 121.343 101.935 122.395C102.882 120.817 104.25 119.66 106.038 118.924Z" fill="#DDDDDD"/>
</g>
<defs>
<filter id="filter0_d_51847_6121" x="0" y="0" width="175.895" height="175.895" filterUnits="userSpaceOnUse" color-interpolation-filters="sRGB">
<feFlood flood-opacity="0" result="BackgroundImageFix"/>
<feColorMatrix in="SourceAlpha" type="matrix" values="0 0 0 0 0 0 0 0 0 0 0 0 0 0 0 0 0 0 127 0" result="hardAlpha"/>
<feOffset dx="4" dy="5"/>
<feGaussianBlur stdDeviation="4"/>
<feComposite in2="hardAlpha" operator="out"/>
<feColorMatrix type="matrix" values="0 0 0 0 0 0 0 0 0 0 0 0 0 0 0 0 0 0 0.3 0"/>
<feBlend mode="normal" in2="BackgroundImageFix" result="effect1_dropShadow_51847_6121"/>
<feBlend mode="normal" in="SourceGraphic" in2="effect1_dropShadow_51847_6121" result="shape"/>
</filter>
<linearGradient id="paint0_linear_51847_6121" x1="158.286" y1="115.143" x2="-1.71428" y2="-38.4286" gradientUnits="userSpaceOnUse">
<stop stop-color="#0C0C0C"/>
<stop offset="1" stop-color="#0C0C0C" stop-opacity="0"/>
</linearGradient>
<linearGradient id="paint1_linear_51847_6121" x1="-13.8571" y1="-107" x2="84" y2="128" gradientUnits="userSpaceOnUse">
<stop stop-color="white"/>
<stop offset="1" stop-color="white" stop-opacity="0"/>
</linearGradient>
</defs>
</svg>
